HIERARCHY
ROOT Bip001_Pelvis
{
  OFFSET 33.2923 95.8902 -28.781
  CHANNELS 6 Xposition Yposition Zposition Zrotation Xrotation Yrotation
  JOINT Bip001_Spine
  {
    OFFSET 1.4188e-005 10.2191 -0.0116013
    CHANNELS 3 Zrotation Xrotation Yrotation
    JOINT Bip001_L_Thigh
    {
      OFFSET 11.0458 -10.2192 0.0116197
      CHANNELS 3 Zrotation Xrotation Yrotation
      JOINT Bip001_L_Calf
      {
        OFFSET -0.707118 -44.0221 0.360014
        CHANNELS 3 Zrotation Xrotation Yrotation
        JOINT Bip001_L_Foot
        {
          OFFSET -0.651902 -40.5938 -3.56146
          CHANNELS 3 Zrotation Xrotation Yrotation
          JOINT Bip001_L_Toe0
          {
            OFFSET 0.0530839 -10.2181 13.1504
            CHANNELS 3 Zrotation Xrotation Yrotation
            End Site
            {
              OFFSET -1.02532e-005 0 7.55606
            }
          }
        }
      }
    }
    JOINT Bip001_R_Thigh
    {
      OFFSET -11.0458 -10.2191 0.0115893
      CHANNELS 3 Zrotation Xrotation Yrotation
      JOINT Bip001_R_Calf
      {
        OFFSET 0.706994 -44.0221 0.35984
        CHANNELS 3 Zrotation Xrotation Yrotation
        JOINT Bip001_R_Foot
        {
          OFFSET 0.651786 -40.5938 -3.5613
          CHANNELS 3 Zrotation Xrotation Yrotation
          JOINT Bip001_R_Toe0
          {
            OFFSET -0.0531479 -10.2181 13.1504
            CHANNELS 3 Zrotation Xrotation Yrotation
            End Site
            {
              OFFSET -1.02894e-005 0 7.55606
            }
          }
        }
      }
    }
    JOINT Bip001_Spine1
    {
      OFFSET 1.87041e-005 14.5736 1.08638
      CHANNELS 3 Zrotation Xrotation Yrotation
      JOINT Bip001_Spine2
      {
        OFFSET 2.24614e-005 14.5058 -1.69078
        CHANNELS 3 Zrotation Xrotation Yrotation
        JOINT Bip001_Neck
        {
          OFFSET 2.20278e-005 15.3945 -0.489414
          CHANNELS 3 Zrotation Xrotation Yrotation
          JOINT Bip001_L_Clavicle
          {
            OFFSET 6.06036 -0.000579998 0.00836775
            CHANNELS 3 Zrotation Xrotation Yrotation
            JOINT Bip001_L_UpperArm
            {
              OFFSET 11.5509 -0.0600302 0.00193952
              CHANNELS 3 Zrotation Xrotation Yrotation
              JOINT Bip001_L_Forearm
              {
                OFFSET 25.9523 0.0806089 -2.15551
                CHANNELS 3 Zrotation Xrotation Yrotation
                JOINT Bip001_L_Hand
                {
                  OFFSET 32.2476 0.153767 1.63968
                  CHANNELS 3 Zrotation Xrotation Yrotation
                  JOINT Bip001_L_Finger0
                  {
                    OFFSET 6.04639 -2.20976 5.90322
                    CHANNELS 3 Zrotation Xrotation Yrotation
                    End Site
                    {
                      OFFSET 4.22376 -1.43895 0.606486
                    }
                  }
                  JOINT Bip001_L_Finger1
                  {
                    OFFSET 11.0826 -0.704819 -0.198153
                    CHANNELS 3 Zrotation Xrotation Yrotation
                    End Site
                    {
                      OFFSET 6.20028 -0.397518 -0.0787166
                    }
                  }
                }
              }
            }
          }
          JOINT Bip001_R_Clavicle
          {
            OFFSET -6.06036 -0.000563197 0.00835105
            CHANNELS 3 Zrotation Xrotation Yrotation
            JOINT Bip001_R_UpperArm
            {
              OFFSET -11.5509 -0.0599978 0.00190698
              CHANNELS 3 Zrotation Xrotation Yrotation
              JOINT Bip001_R_Forearm
              {
                OFFSET -25.9523 0.080682 -2.1559
                CHANNELS 3 Zrotation Xrotation Yrotation
                JOINT Bip001_R_Hand
                {
                  OFFSET -32.2476 0.153858 1.63991
                  CHANNELS 3 Zrotation Xrotation Yrotation
                  JOINT Bip001_R_Finger0
                  {
                    OFFSET -6.04641 -2.20974 5.90321
                    CHANNELS 3 Zrotation Xrotation Yrotation
                    End Site
                    {
                      OFFSET -4.22376 -1.43894 0.606474
                    }
                  }
                  JOINT Bip001_R_Finger1
                  {
                    OFFSET -11.0826 -0.704789 -0.198184
                    CHANNELS 3 Zrotation Xrotation Yrotation
                    End Site
                    {
                      OFFSET -6.20028 -0.397501 -0.0787338
                    }
                  }
                }
              }
            }
          }
          JOINT Bip001_Head
          {
            OFFSET 1.09673e-005 11.2744 2.05948
            CHANNELS 3 Zrotation Xrotation Yrotation
            End Site
            {
              OFFSET 2.89576e-005 20.8808 -2.77728e-005
            }
          }
        }
      }
    }
  }
}
MOTION
Frames:	8
Frame Time:	0.04
32.2703 95.8607 -29.2954 -0.253615 -1.42434 -1.21301 0.117837 3.38334 0.170727 5.19082 -3.74046 7.06351 0.259252 8.2544 -10.0501 4.27104 -2.26896 -0.122576 -3.29212 -4.59655 5.20814 -3.00524 -4.22089 3.43336 1.68247 10.2845 -0.308232 -5.92056 -9.11876 0.378329 1.78112 -6.3226 2.09806 0.225601 6.76698 0.337335 0.225624 6.767 0.337148 3.09698 -0.408482 -6.22313 -26.1002 1.67018 -4.50867 -48.5696 41.2078 -2.21619 11.7458 -1.42654 -25.8709 7.84752 0.887289 -2.12889 -3.18055e-015 3.18055e-015 -0 0 0 -1.59028e-015 28.6634 5.85096 8.2638 41.7465 38.7213 11.4862 -13.0299 2.11941 14.0678 -17.4289 -0.94678 4.2083 3.53112e-031 -6.36111e-015 3.18055e-015 -0 0 3.18055e-015 0.38783 17.254 -5.18654 
32.2762 95.8662 -29.2778 -0.172984 -1.35127 -1.27133 0.0949697 3.34973 0.170721 5.08349 -3.6628 6.67951 0.253895 8.03435 -9.62612 4.38157 -2.07318 -0.132799 -3.23438 -4.6829 5.15378 -3.08001 -4.32045 3.62773 1.75832 10.3932 -0.374895 -5.9431 -9.1529 0.261258 1.78053 -6.31258 2.09605 0.180204 6.69973 0.336185 0.180275 6.69975 0.336484 3.05831 -0.543948 -6.15152 -26.0466 1.82936 -4.51984 -48.4816 41.1293 -2.53083 11.6927 -1.56859 -26.0953 7.99913 0.814848 -2.20351 6.36111e-015 -3.18055e-015 -3.18055e-015 6.36111e-015 -3.18056e-015 -3.18055e-015 28.7169 5.99598 8.27711 41.2527 38.4657 12.2595 -13.5889 0.479009 15.1564 -17.8184 -0.454823 4.33328 3.18055e-015 -3.18055e-015 -3.18055e-015 -1.76556e-031 3.18056e-015 3.18055e-015 0.502097 17.429 -5.16944 
32.2621 95.8728 -29.2154 -0.138032 -1.35022 -1.16031 0.0874929 3.33668 0.146235 5.04208 -3.55393 5.7318 0.143911 7.84301 -8.77411 4.55877 -1.84118 -0.133267 -3.14202 -4.7758 5.1155 -3.10202 -4.21168 3.55751 1.76677 10.3141 -0.364386 -5.97942 -9.17222 0.233635 1.78023 -6.29971 2.08059 0.166788 6.67358 0.288037 0.166788 6.67359 0.288038 2.87057 -0.52458 -6.0464 -25.8729 1.87522 -4.60055 -48.3644 41.1669 -2.83219 11.7393 -1.66796 -26.3435 7.95181 0.984114 -2.21228 6.36111e-015 -3.18055e-015 3.18055e-015 3.18055e-015 -3.18056e-015 1.59028e-015 29.0327 6.03688 8.36459 41.0058 38.4218 12.328 -13.9566 -0.986088 16.2701 -17.9371 -0.0834137 3.84921 -9.54166e-015 3.18055e-015 6.36111e-015 -1.27222e-014 3.18056e-015 6.36111e-015 0.80219 17.3193 -5.23043 
32.2419 95.8598 -29.1408 -0.0848079 -1.32443 -0.994544 0.0812955 3.32903 0.115152 5.04196 -3.64893 7.07539 0.312129 8.05951 -10.177 4.41905 -2.09214 -0.131275 -3.19102 -4.66505 5.13262 -3.12371 -4.20446 3.42261 1.74624 10.4281 -0.365969 -5.99031 -9.26949 0.232366 1.7886 -6.32789 2.08179 0.152002 6.65874 0.226629 0.152177 6.65875 0.226677 2.81109 -0.521844 -5.94627 -25.8415 1.91957 -4.67151 -48.1847 41.21 -3.14126 11.7947 -1.63538 -26.5888 8.12641 1.07411 -2.28752 8.82781e-032 -3.18055e-015 1.59028e-015 -3.18055e-015 -6.36111e-015 1.59028e-015 29.0425 6.06222 8.48722 41.2032 38.3101 11.9117 -14.3598 -1.37798 17.2244 -17.1483 0.121357 3.73001 3.18055e-015 -9.54166e-015 3.18055e-015 -3.18055e-015 -9.54167e-015 -0 0.843721 17.2556 -5.16864 
32.214 95.8603 -29.0608 -0.0729198 -1.32282 -0.877285 0.0789532 3.32666 0.0978146 5.04876 -3.5603 7.0093 0.280113 7.92824 -10.2864 4.49602 -1.9298 -0.14137 -3.16119 -4.79439 5.11604 -3.09294 -4.13135 3.30538 1.69636 10.4287 -0.381573 -5.9788 -9.31184 0.251303 1.79026 -6.3177 2.08364 0.149752 6.65635 0.191481 0.149791 6.65636 0.191492 2.73272 -0.44202 -5.83196 -25.8281 1.89829 -4.79232 -47.9962 41.2368 -3.42116 11.9283 -1.55767 -26.6812 8.15589 1.00003 -2.45305 3.18055e-015 0 -1.59028e-015 3.18055e-015 -6.36111e-015 -1.59028e-015 28.976 5.96989 8.56134 41.4645 38.4757 11.571 -14.4015 -1.37702 17.2762 -16.2676 0.0341193 4.07756 6.36111e-015 -3.18055e-015 3.18055e-015 3.18055e-015 -3.18056e-015 3.18055e-015 0.856592 17.1267 -5.08599 
32.1914 95.8593 -28.9819 -0.0432549 -1.3116 -0.744201 0.076265 3.32442 0.0857065 5.0449 -3.51476 7.05602 0.290156 7.86741 -10.4107 4.28743 -2.07247 -0.133616 -3.22707 -4.68224 5.15267 -3.09875 -4.04465 3.18252 1.67802 10.3779 -0.413223 -5.97266 -9.34452 0.263314 1.79153 -6.32882 2.08612 0.147738 6.65407 0.168254 0.147751 6.65407 0.168141 2.80997 -0.450644 -5.737 -25.9941 1.93173 -4.87475 -47.7926 41.1897 -3.64239 11.8583 -1.65927 -26.7433 8.22892 1.09669 -2.40628 -0 -3.18055e-015 -0 3.18055e-015 -3.18056e-015 -0 28.8074 6.03828 8.81798 41.8269 39.3721 10.6705 -14.5741 -1.6062 17.166 -15.4112 0.0108671 3.88138 6.36111e-015 0 -3.18055e-015 3.18055e-015 -6.36111e-015 -0 0.590562 17.1572 -4.87718 
32.1733 95.8642 -28.9119 -0.0206493 -1.27567 -0.652104 0.0676716 3.32191 0.0912143 5.04564 -3.51313 7.01065 0.300308 7.84289 -10.3939 4.23658 -2.08434 -0.125554 -3.21838 -4.65297 5.14529 -3.10223 -3.9699 3.12267 1.68042 10.2922 -0.446059 -5.97484 -9.34995 0.26081 1.79333 -6.35426 2.09299 0.130671 6.64391 0.176221 0.130672 6.64392 0.176221 2.80253 -0.340373 -5.68598 -26.0265 1.84541 -4.9259 -47.5893 41.1257 -3.80117 11.8151 -1.6067 -26.7623 8.19607 0.983632 -2.40863 3.18055e-015 3.18055e-015 -1.59028e-015 3.18055e-015 6.36111e-015 -1.59028e-015 28.8029 6.05042 9.17954 42.3279 40.1553 9.58342 -14.6701 -2.04636 16.7312 -13.9053 0.167815 3.32798 -3.18055e-015 6.36111e-015 -3.18055e-015 -3.18055e-015 3.18056e-015 -0 0.358002 17.0662 -4.74629 
32.1479 95.8767 -28.8286 -0.00414859 -1.26976 -0.553095 0.0556269 3.31376 0.0993557 5.0962 -3.47783 6.99623 0.295634 7.86318 -10.3794 3.80916 -2.39016 -0.103005 -3.39665 -4.31115 5.28692 -3.0796 -3.83736 3.02012 1.65846 10.1579 -0.483752 -5.97738 -9.34089 0.245976 1.79597 -6.35642 2.12035 0.105306 6.62777 0.205661 0.105331 6.62777 0.20542 2.81326 -0.160819 -5.64403 -26.0261 1.67971 -4.96452 -47.4591 41.1952 -3.90489 11.7005 -1.78783 -26.6577 8.0861 1.05026 -2.29544 -1.76556e-031 6.36111e-015 1.59028e-015 -0 0 1.59028e-015 28.8235 5.96969 9.47224 42.7917 40.8696 8.53745 -14.5438 -2.02011 15.9569 -12.1887 0.656749 3.10565 0 3.18055e-015 -0 0 3.18056e-015 -0 0.0502641 16.988 -4.58914 
